<svg width="555" height="641" viewBox="0 0 555 641" fill="none" xmlns="http://www.w3.org/2000/svg"><g clip-path="url(#clip0_3_4804)"><rect width="554.896" height="641" rx="12" fill="#362162"/><path d="M517.583 104.282H39.225l-99.977-125.33H614.69l-97.107 125.33z" fill="#4D3581"/><path d="M480.271 116.719l95.672-132.027m-595.078 0L76.537 116.72M95.671-16.264l57.403 131.548m243.963 0L454.44-16.264m-249.703-5.74l18.177 135.375m99.499 0l18.178-135.375" stroke="#644A9B" stroke-width="21.048"/><path d="M517.583 582.64H39.225l-99.977 125.33H614.69l-97.107-125.33z" fill="#291553"/><path d="M146.975 582.64H68.883l-38.269 59.795h103.804l12.557-59.795z" fill="#513A82" stroke="#000" stroke-width="1.913" stroke-linecap="round" stroke-linejoin="round"/><path d="M423.825 552.982l66.97 129.157m-274.578 16.742l5.741-143.507m106.195.478l17.699 137.289" stroke="#1C0D3A" stroke-width="21.048"/><g clip-path="url(#clip1_3_4804)"><path fill="#937AC9" d="M39.225 104.283h95.672v95.672H39.225z"/><path fill="#59489F" d="M39.225 199.955h95.672v95.672H39.225z"/><path fill="#937AC9" d="M39.225 295.626h95.672v95.672H39.225z"/><path fill="#59489F" d="M39.225 391.298h95.672v95.672H39.225z"/><path fill="#937AC9" d="M39.225 486.97h95.672v95.672H39.225z"/><path fill="#59489F" d="M134.897 104.283h95.672v95.672h-95.672z"/><path fill="#937AC9" d="M134.897 199.955h95.672v95.672h-95.672z"/><path fill="#59489F" d="M134.897 295.626h95.672v95.672h-95.672z"/><path fill="#937AC9" d="M134.897 391.298h95.672v95.672h-95.672z"/><path fill="#59489F" d="M134.897 486.97h95.672v95.672h-95.672z"/><path fill="#937AC9" d="M230.568 104.283h95.672v95.672h-95.672z"/><path fill="#59489F" d="M230.568 199.955h95.672v95.672h-95.672z"/><path fill="#937AC9" d="M230.568 295.626h95.672v95.672h-95.672z"/><path fill="#59489F" d="M230.568 391.298h95.672v95.672h-95.672z"/><path fill="#937AC9" d="M230.568 486.97h95.672v95.672h-95.672z"/><path fill="#59489F" d="M326.24 104.283h95.672v95.672H326.24z"/><path fill="#937AC9" d="M326.24 199.955h95.672v95.672H326.24z"/><path fill="#59489F" d="M326.24 295.626h95.672v95.672H326.24z"/><path fill="#937AC9" d="M326.24 391.298h95.672v95.672H326.24z"/><path fill="#59489F" d="M326.24 486.97h95.672v95.672H326.24z"/><path fill="#937AC9" d="M421.912 104.283h95.672v95.672h-95.672z"/><path fill="#59489F" d="M421.912 199.955h95.672v95.672h-95.672z"/><path fill="#937AC9" d="M421.912 295.626h95.672v95.672h-95.672z"/><path fill="#59489F" d="M421.912 391.298h95.672v95.672h-95.672z"/><path fill="#937AC9" d="M421.912 486.97h95.672v95.672h-95.672z"/></g><path stroke="#000" stroke-width="2.87" d="M40.66 105.717h475.488v475.488H40.66z"/><path d="M462.572 97.585H95.192L40.183 14.83H524.28l-61.708 82.756z" fill="#B5CEFF" stroke="#000" stroke-width="1.913" stroke-linecap="round" stroke-linejoin="round"/><path d="M82.755 80.364l-40.182-64.1h177.95l-137.767 64.1zm273.143-64.1L114.327 97.585h117.676l187.517-81.32h-63.622z" opacity=".3" fill="#fff"/><path d="M176.992 10.524l16.264 87.061m184.646-87.061l-16.264 87.061" stroke="#000" stroke-width="1.913" stroke-linecap="round" stroke-linejoin="round"/><ellipse cx="58.066" cy="614.316" rx="2.543" ry="4.403" transform="rotate(14.018 58.066 614.316)" fill="#000"/><path d="M28.701 187.995l-42.096-36.355v66.97l42.096 11.959v-42.574zM17.22 235.352l-42.095-11.48v41.138l42.095 5.741v-35.399z" fill="#644A9B"/><path opacity=".3" d="M42.095 391.297l56.446-284.145H463.05l51.663 190.387-472.618 93.758z" fill="#fff"/><path d="M517.105 105.717l46.879-61.23M517.105 582.64l46.879 61.23M40.182 105.717l-46.88-61.23m46.88 538.153l-46.88 61.23" stroke="#000" stroke-width="2.87"/></g><defs><clipPath id="clip0_3_4804"><rect width="554.896" height="641" rx="12" fill="#fff"/></clipPath><clipPath id="clip1_3_4804"><path fill="#fff" d="M39.225 104.282h478.358V582.64H39.225z"/></clipPath></defs></svg>