<svg width="96" height="97" viewBox="0 0 96 97" fill="none" xmlns="http://www.w3.org/2000/svg"><circle cx="47.84" cy="48.223" r="43.052" transform="rotate(-133.195 47.84 48.223)" fill="#D3E7F8"/><path d="M48.314 19.146v15.308m0-15.308l-5.261 5.262m5.261-5.262l5.262 5.262" stroke="#0F2F5F" stroke-width="1.913" stroke-linecap="round"/><path opacity=".2" d="M33.089 83.476l29.772.261 2.205-8.144H28.185l4.904 7.883z" stroke="#0F2F5F" stroke-width="1.913" stroke-linejoin="round"/><path d="M90.65 48.007l-85.63.347" stroke="#0F2F5F" stroke-width="1.913"/><path d="M30.833 11.59A43.052 43.052 0 1089.625 42.6" stroke="#000" stroke-width="1.913" stroke-linecap="round" stroke-linejoin="round"/><circle cx="48.475" cy="48.611" r="14.351" transform="rotate(-133.195 48.475 48.61)" fill="#0F2F5F"/><path d="M57.347 53.572a10.2 10.2 0 10-19.001-6.659" stroke="#fff" stroke-width="1.913" stroke-linecap="round" stroke-linejoin="round"/><path d="M58.484 9.067a41.139 41.139 0 00-21.524.062l1.443 5.267a35.678 35.678 0 0118.667-.054l1.414-5.275z" fill="#F34684"/></svg>