<svg width="307" height="486" viewBox="0 0 307 486" fill="none" xmlns="http://www.w3.org/2000/svg"><g clip-path="url(#clip0_3_6122)"><path fill="#3E3B44" d="M0-18h104.472V86.472H0z"/><path fill="#1F1D23" d="M0 86.472h104.472v104.472H0z"/><path fill="#3E3B44" d="M0 190.943h104.472v104.472H0z"/><path fill="#1F1D23" d="M0 295.416h104.472v104.472H0z"/><path fill="#3E3B44" d="M0 399.888h104.472V504.36H0z"/><path fill="#1F1D23" d="M104.472-18h104.472V86.472H104.472z"/><path fill="#3E3B44" d="M104.472 86.472h104.472v104.472H104.472z"/><path fill="#1F1D23" d="M104.472 190.943h104.472v104.472H104.472z"/><path fill="#3E3B44" d="M104.472 295.416h104.472v104.472H104.472z"/><path fill="#1F1D23" d="M104.472 399.888h104.472V504.36H104.472z"/><path fill="#3E3B44" d="M208.944-18h104.472V86.472H208.944z"/><path fill="#1F1D23" d="M208.944 86.472h104.472v104.472H208.944z"/><path fill="#3E3B44" d="M208.944 190.943h104.472v104.472H208.944z"/><path fill="#1F1D23" d="M208.944 295.416h104.472v104.472H208.944z"/><path fill="#3E3B44" d="M208.944 399.888h104.472V504.36H208.944z"/><path d="M157 265V135.5H39m0 0V265h233V30.5H39v105z" stroke="#B04CDF" stroke-width="2" stroke-linecap="round" stroke-linejoin="round"/><circle cx="156.84" cy="242.202" r="46.948" transform="rotate(-133.195 156.84 242.202)" fill="#D3E7F8"/><path d="M157.358 210.492v16.693m0-16.693l-5.738 5.738m5.738-5.738l5.738 5.738" stroke="#0F2F5F" stroke-width="2.087" stroke-linecap="round"/><path opacity=".2" d="M140.754 280.645l32.466.286 2.405-8.882h-40.219l5.348 8.596z" stroke="#0F2F5F" stroke-width="2.087" stroke-linejoin="round"/><path d="M203.525 241.964l-93.379.379" stroke="#0F2F5F" stroke-width="2.087"/><path d="M138.294 202.253a46.94 46.94 0 00-28.768 41.22 46.948 46.948 0 1092.881-7.402" stroke="#000" stroke-width="2.087" stroke-linecap="round" stroke-linejoin="round"/><circle cx="157.533" cy="242.623" r="15.649" transform="rotate(-133.195 157.533 242.623)" fill="#0F2F5F"/><path d="M167.208 248.035a11.133 11.133 0 00.613-9.317 11.13 11.13 0 00-6.702-6.501 11.12 11.12 0 00-14.631 8.557" stroke="#fff" stroke-width="2.087" stroke-linecap="round" stroke-linejoin="round"/><path d="M168.447 199.501a44.863 44.863 0 00-23.472.068l1.575 5.743a38.907 38.907 0 0120.356-.059l1.541-5.752z" fill="#F34684"/></g><defs><clipPath id="clip0_3_6122"><path fill="#fff" transform="translate(0 -18)" d="M0 0h522.358v522.358H0z"/></clipPath></defs></svg>