<svg width="307" height="396" viewBox="0 0 307 396" fill="none" xmlns="http://www.w3.org/2000/svg"><g clip-path="url(#clip0_3_6077)"><path fill="#3E3B44" d="M0-63h104.472V41.472H0z"/><path fill="#1F1D23" d="M0 41.472h104.472v104.472H0z"/><path fill="#3E3B44" d="M0 145.944h104.472v104.472H0z"/><path fill="#1F1D23" d="M0 250.416h104.472v104.472H0z"/><path fill="#3E3B44" d="M0 354.888h104.472V459.36H0z"/><path fill="#1F1D23" d="M104.472-63h104.472V41.472H104.472z"/><path fill="#3E3B44" d="M104.472 41.472h104.472v104.472H104.472z"/><path fill="#1F1D23" d="M104.472 145.944h104.472v104.472H104.472z"/><path fill="#3E3B44" d="M104.472 250.416h104.472v104.472H104.472z"/><path fill="#1F1D23" d="M104.472 354.888h104.472V459.36H104.472z"/><path fill="#3E3B44" d="M208.944-63h104.472V41.472H208.944z"/><path fill="#1F1D23" d="M208.944 41.472h104.472v104.472H208.944z"/><path fill="#3E3B44" d="M208.944 145.944h104.472v104.472H208.944z"/><path fill="#1F1D23" d="M208.944 250.416h104.472v104.472H208.944z"/><path fill="#3E3B44" d="M208.944 354.888h104.472V459.36H208.944z"/><circle cx="156.84" cy="197.202" r="46.948" transform="rotate(-133.195 156.84 197.202)" fill="#D3E7F8"/><path d="M157.358 165.492v16.693m0-16.693l-5.738 5.738m5.738-5.738l5.738 5.738" stroke="#0F2F5F" stroke-width="2.087" stroke-linecap="round"/><path opacity=".2" d="M140.754 235.645l32.466.286 2.405-8.882h-40.219l5.348 8.596z" stroke="#0F2F5F" stroke-width="2.087" stroke-linejoin="round"/><path d="M203.525 196.964l-93.379.379" stroke="#0F2F5F" stroke-width="2.087"/><path d="M138.294 157.253a46.95 46.95 0 00-3.77 84.83 46.948 46.948 0 0067.883-51.012" stroke="#000" stroke-width="2.087" stroke-linecap="round" stroke-linejoin="round"/><circle cx="157.533" cy="197.623" r="15.649" transform="rotate(-133.195 157.533 197.623)" fill="#0F2F5F"/><path d="M167.208 203.034a11.125 11.125 0 00-10.835-16.392 11.128 11.128 0 00-9.885 9.131" stroke="#fff" stroke-width="2.087" stroke-linecap="round" stroke-linejoin="round"/><path d="M168.447 154.501a44.863 44.863 0 00-23.472.068l1.575 5.743a38.907 38.907 0 0120.356-.059l1.541-5.752z" fill="#F34684"/><path d="M286 19v359H20V19h266z" stroke="#B04CDF" stroke-width="2" stroke-linecap="round" stroke-linejoin="round"/></g><defs><clipPath id="clip0_3_6077"><path fill="#fff" transform="translate(0 -63)" d="M0 0h522.358v522.358H0z"/></clipPath></defs></svg>