<svg width="307" height="396" viewBox="0 0 307 396" fill="none" xmlns="http://www.w3.org/2000/svg"><g clip-path="url(#clip0_3_6212)"><path fill="#3E3B44" d="M0-63h104.472V41.472H0z"/><path fill="#1F1D23" d="M0 41.472h104.472v104.472H0z"/><path fill="#3E3B44" d="M0 145.943h104.472v104.472H0z"/><path fill="#1F1D23" d="M0 250.416h104.472v104.472H0z"/><path fill="#3E3B44" d="M0 354.888h104.472V459.36H0z"/><path fill="#1F1D23" d="M104.472-63h104.472V41.472H104.472z"/><path fill="#3E3B44" d="M104.472 41.472h104.472v104.472H104.472z"/><path fill="#1F1D23" d="M104.472 145.943h104.472v104.472H104.472z"/><path fill="#3E3B44" d="M104.472 250.416h104.472v104.472H104.472z"/><path fill="#1F1D23" d="M104.472 354.888h104.472V459.36H104.472z"/><path fill="#3E3B44" d="M208.944-63h104.472V41.472H208.944z"/><path fill="#1F1D23" d="M208.944 41.472h104.472v104.472H208.944z"/><path fill="#3E3B44" d="M208.944 145.943h104.472v104.472H208.944z"/><path fill="#1F1D23" d="M208.944 250.416h104.472v104.472H208.944z"/><path fill="#3E3B44" d="M208.944 354.888h104.472V459.36H208.944z"/><path d="M272 451V307.5H52v-107h211V91H49V-23.5" stroke="#B04CDF" stroke-width="2" stroke-linecap="round" stroke-linejoin="round"/><circle cx="49" cy="94" r="36.5" fill="#3A2A1B" stroke="#FFB74A" stroke-width="3"/><circle cx="41" cy="101" r="19" fill="#22150A"/><ellipse opacity=".8" cx="47.194" cy="71.964" rx="7" ry="14.5" transform="rotate(-18.277 47.194 71.964)" fill="#22150A"/><ellipse opacity=".4" cx="52.905" cy="115.914" rx="7" ry="14.5" transform="rotate(-3.633 52.905 115.914)" fill="#22150A"/><ellipse opacity=".4" cx="72.73" cy="94.493" rx="7" ry="14.5" transform="rotate(91.957 72.73 94.493)" fill="#22150A"/><path d="M52.055 92c-5.937-24.772-15.833-44.236 2.474-64.143C72.835 7.951 90.646 41.128 52.055 92z" fill="#43B162"/><path d="M51.416 91.375c14.516 7.425 29.89 9.77 24.039 31.133-5.852 21.364-32.776 17.998-24.039-31.133z" fill="#1C7434"/><path d="M51.518 90.629c42.47-42.887 67.114 3.442 33.758 5.111-26.684 1.336-33.623-2.851-33.758-5.111z" fill="#33A252"/><path d="M77 88c-2.8 1.6-17.167 2.667-24 3 .167.667.7 2.1 1.5 2.5 1 .5 8.5 2 15.5 2.5s18-1.5 22-2 6.5-3.5 8-6.5S91.5 83 88 83s-7.5 3-11 5z" fill="#249443"/><path d="M51.609 89.413C-17 109 16.473 145.931 33.999 117.502c14.022-22.743 19.526-26.883 17.61-28.089z" fill="#33A252"/><path d="M13 124.5c5.6-10.8 26.333-24.5 36-30-6.167 9.5-18.9 28.8-20.5 30-2 1.5-10 4-15.5 0z" fill="#1C863A"/><path d="M74.5 46.502c2-14.5-5-24-7.5-24.5-1.19-.237-7.442 13.714-10.5 29.498C53.135 68.866 53 88.24 53 88.501c6.667-10 19.9-30.399 21.5-41.999z" fill="#299848"/><path d="M53 93c3.5 1 3 2 9 3.5s15.5 8 14 15.5-3.5 20-8 20.5c-1.936.215-5.116-7.369-8.186-16.5-.165-.491.21-1.359.588-2.232L61 111.5c-.373-1.157-2.917-.828-3.28-2A409.182 409.182 0 0153 93z" fill="#116328"/><path d="M53.5 90c6.5 4 2.5 3.998 7.5 4.998 4 .8 21.5.834 26.5.5l2-4.5c0 1.5.7 4.2 3.5 3 3.5-1.5 9.5-3.998 6.5-12.998s-11.5-8.502-22-7.502c-1.66.158-2.179 1.698-4 2.5M53.5 90c.167 1 1.6 3.498 6 5.498 5.5 2.5 14.5 4 16.5 14.5s-9 33.5-21 21c2.4-2-.667-3.833-2.5-4.5-1.167-3.166-3.3-10.5-2.5-14.5 1-5 1-13.997 3.5-21.998zm0 0c-6.666 9.166-20.6 28.498-23 32.498-3 5-29 11-16-13.5 4.5-3.5 4.5-6.5 9.5-8s14.5-8 19.5-8.5M53.5 90c2.869-3.176 10.5-10.502 17-13.502M53.5 90c4-9 21.5-32 21.5-46s-6-38.5-27.5-6c5.2 3.199 1.5 2.665-1 1.998l-1.5 5.5c.833.833 2.5 2.6 2.5 3 0 .4-2-.833-3-1.5v6.5c0 2.4 1.333 1.667 2 1-.667.833-2 3-2 5 0 2.5 4.5 23.003 9 30.502zm17-13.502c1.741-1.137 1.27.261 3-.5m-3 .5l3-.5" stroke="#055B41"/><path d="M41.01 88.112c-.828-1.233-.109-2.93 2.35-3.71a10.51 10.51 0 012.355-.45c-1.03-2.304 1.421-5.948 5.568-2.885.23.17.448.34.654.507.663-1.7 1.964-2.777 3.62-1.432 2.08 1.689 1.106 6.108-.374 8.793 3.528.206 7.924 2.429.657 5.942-9.67 4.676-15.433.773-12.222-1.05-.93-.416-1.77-1.227-2.4-2.582-.813-1.749-.746-2.711-.207-3.133z" fill="#EA70DE" stroke="#931761"/><circle cx="157.47" cy="197.84" r="46.948" transform="rotate(-43.195 157.47 197.84)" fill="#D3E7F8"/><path d="M189.18 198.358h-16.692m16.692 0l-5.738-5.738m5.738 5.738l-5.738 5.738" stroke="#0F2F5F" stroke-width="2.087" stroke-linecap="round"/><path opacity=".2" d="M119.027 181.754l-.285 32.467 8.881 2.404v-40.218l-8.596 5.347z" stroke="#0F2F5F" stroke-width="2.087" stroke-linejoin="round"/><path d="M157.708 244.525l-.379-93.379" stroke="#0F2F5F" stroke-width="2.087"/><path d="M197.419 179.295a46.957 46.957 0 00-41.22-28.769 46.948 46.948 0 107.402 92.881" stroke="#000" stroke-width="2.087" stroke-linecap="round" stroke-linejoin="round"/><circle cx="157.049" cy="198.533" r="15.649" transform="rotate(-43.195 157.049 198.533)" fill="#0F2F5F"/><path d="M151.638 208.209a11.129 11.129 0 0013.305-2.023 11.133 11.133 0 003.088-8.812 11.131 11.131 0 00-4.714-8.06 11.119 11.119 0 00-4.418-1.826" stroke="#fff" stroke-width="2.087" stroke-linecap="round" stroke-linejoin="round"/><path d="M200.171 209.447a44.863 44.863 0 00-.068-23.472l-5.743 1.575a38.903 38.903 0 01.059 20.355l5.752 1.542z" fill="#F34684"/></g><defs><clipPath id="clip0_3_6212"><path fill="#fff" transform="translate(0 -63)" d="M0 0h522.358v522.358H0z"/></clipPath></defs></svg>