<svg width="307" height="378" viewBox="0 0 307 378" fill="none" xmlns="http://www.w3.org/2000/svg"><g clip-path="url(#clip0_3_6167)"><path fill="#3E3B44" d="M0-72h104.472V32.472H0z"/><path fill="#1F1D23" d="M0 32.472h104.472v104.472H0z"/><path fill="#3E3B44" d="M0 136.943h104.472v104.472H0z"/><path fill="#1F1D23" d="M0 241.416h104.472v104.472H0z"/><path fill="#3E3B44" d="M0 345.888h104.472V450.36H0z"/><path fill="#1F1D23" d="M104.472-72h104.472V32.472H104.472z"/><path fill="#3E3B44" d="M104.472 32.472h104.472v104.472H104.472z"/><path fill="#1F1D23" d="M104.472 136.943h104.472v104.472H104.472z"/><path fill="#3E3B44" d="M104.472 241.416h104.472v104.472H104.472z"/><path fill="#1F1D23" d="M104.472 345.888h104.472V450.36H104.472z"/><path fill="#3E3B44" d="M208.944-72h104.472V32.472H208.944z"/><path fill="#1F1D23" d="M208.944 32.472h104.472v104.472H208.944z"/><path fill="#3E3B44" d="M208.944 136.943h104.472v104.472H208.944z"/><path fill="#1F1D23" d="M208.944 241.416h104.472v104.472H208.944z"/><path fill="#3E3B44" d="M208.944 345.888h104.472V450.36H208.944z"/><path d="M272 442V298.5H52v-107h211V82H49V-32.5" stroke="#B04CDF" stroke-width="2" stroke-linecap="round" stroke-linejoin="round"/><circle cx="157.47" cy="188.84" r="46.948" transform="rotate(-43.195 157.47 188.84)" fill="#D3E7F8"/><path d="M189.18 189.358h-16.692m16.692 0l-5.738-5.738m5.738 5.738l-5.738 5.738" stroke="#0F2F5F" stroke-width="2.087" stroke-linecap="round"/><path opacity=".2" d="M119.027 172.754l-.285 32.467 8.881 2.404v-40.218l-8.596 5.347z" stroke="#0F2F5F" stroke-width="2.087" stroke-linejoin="round"/><path d="M157.708 235.525l-.379-93.379" stroke="#0F2F5F" stroke-width="2.087"/><path d="M197.419 170.295a46.957 46.957 0 00-41.22-28.769 46.948 46.948 0 107.402 92.881" stroke="#000" stroke-width="2.087" stroke-linecap="round" stroke-linejoin="round"/><circle cx="157.049" cy="189.533" r="15.649" transform="rotate(-43.195 157.049 189.533)" fill="#0F2F5F"/><path d="M151.638 199.209a11.129 11.129 0 0013.305-2.023 11.133 11.133 0 003.088-8.812 11.131 11.131 0 00-4.714-8.06 11.119 11.119 0 00-4.418-1.826" stroke="#fff" stroke-width="2.087" stroke-linecap="round" stroke-linejoin="round"/><path d="M200.171 200.447a44.863 44.863 0 00-.068-23.472l-5.743 1.575a38.903 38.903 0 01.059 20.355l5.752 1.542z" fill="#F34684"/></g><defs><clipPath id="clip0_3_6167"><path fill="#fff" transform="translate(0 -72)" d="M0 0h522.358v522.358H0z"/></clipPath></defs></svg>